# xmcd
#
# Track frame offsets:
#	150
#	13844
#	32632
#	48825
#	62953
#	78183
#	96931
#	110640
#	129043
#	143018
#	158967
#	175990
#	192644
#	211399
#	227238
#	242051
#	256051
#
# Disc length: 3679 seconds
#
# Revision: 1
# Processed by: cddbd v1.5.1PL0 Copyright (c) Steve Scherf et al.
# Submitted via: audiograbber 1.83.01
#
DISCID=e70e5d11
DTITLE=Jimmy Buffett - CKC031
DYEAR=1900
DGENRE=Karaoke
TTITLE0=Hey Good Lookin - And Friends
TTITLE1=It's Five O'Clock Somewhere - Alan Jackson
TTITLE2=Trip Around The Sun - Martina McBride
TTITLE3=Pencil Thin Mustache
TTITLE4=Come Monday
TTITLE5=A Pirate Looks At Forty
TTITLE6=Grapefruit, Juicy Fruit
TTITLE7=Volcano
TTITLE8=Cheeseburger In Paradise
TTITLE9=Changes In Latitude, Changes In Attitude
TTITLE10=Fins
TTITLE11=Son Of A Sailor
TTITLE12=Merry Christmas Alabama
TTITLE13=Last Mango In Paris
TTITLE14=Another Saterday Night
TTITLE15=Why Don't We Get Drunk And Screw
TTITLE16=Margaritaville
EXTD=
EXTT0=
EXTT1=
EXTT2=
EXTT3=
EXTT4=
EXTT5=
EXTT6=
EXTT7=
EXTT8=
EXTT9=
EXTT10=
EXTT11=
EXTT12=
EXTT13=
EXTT14=
EXTT15=
EXTT16=
PLAYORDER=
